Coordinates
version=1
nRows=24
nColumns=24
inDegrees=yes

Units are S.I. units (second, meters, Newtons, ...)
Angles are in degrees.

endheader
time	pelvis_tilt	pelvis_list	pelvis_rotation	pelvis_tx	pelvis_ty	pelvis_tz	hip_flexion_r	hip_adduction_r	hip_rotation_r	knee_angle_r	ankle_angle_r	subtalar_angle_r	mtp_angle_r	hip_flexion_l	hip_adduction_l	hip_rotation_l	knee_angle_l	ankle_angle_l	subtalar_angle_l	mtp_angle_l	lumbar_extension	lumbar_bending	lumbar_rotation
      0.93000000	     25.85921841	     -7.00140017	      1.34906332	     -0.65781896	      0.88735917	      0.02961296	    -47.31685100	      8.09823507	     17.67694026	      2.67165692	     11.68857023	     -5.66614602	     27.15950681	     -1.00753897	     -3.59401035	     19.69407857	     -8.99737916	     -6.42502787	    -39.13893636	     29.53417101	    -35.82156252	      8.19667768	      7.82988229
      0.93500000	     25.89488621	     -6.75698525	      1.22556692	     -0.65043910	      0.88712178	      0.02951229	    -47.63901863	      7.83340442	     17.03791385	      2.19636850	     11.82436608	     -4.63231630	     27.38146676	     -1.25142771	     -3.18243867	     19.48429722	     -9.52679314	     -6.60106098	    -38.81304372	     29.58560346	    -35.65770182	      7.81588942	      7.67133441
      0.94000000	     25.82848037	     -6.53583684	      1.00940587	     -0.64284097	      0.88689578	      0.02955794	    -47.81431305	      7.53491278	     16.42605177	      1.62237195	     12.01570717	     -3.45537032	     27.69577893	     -1.43718989	     -2.80762439	     19.17797257	    -10.01193557	     -6.74414472	    -38.37545832	     29.67173901	    -35.37277697	      7.41006317	      7.61711523
      0.94500000	     25.81558225	     -6.31258069	      0.72724216	     -0.63515256	      0.88684430	      0.02973189	    -48.03762516	      7.18384978	     15.89545634	      1.03239140	     12.08279546	     -2.41420864	     28.04109578	     -1.73373653	     -2.44719582	     18.75535784	    -10.42936757	     -6.91980443	    -37.95299287	     29.76128864	    -35.14117289	      6.95943586	      7.60537350
      0.95000000	     25.81111987	     -6.08757617	      0.39241005	     -0.62735955	      0.88691487	      0.03001329	    -48.24620022	      6.79616650	     15.40017670	      0.39904599	     12.07792199	     -1.42586015	     28.46191698	     -2.08586490	     -2.09965911	     18.25828804	    -10.77985228	     -7.10537213	    -37.52576525	     29.85721377	    -34.91067356	      6.47414072	      7.63565425
      0.95500000	     25.79823358	     -5.86433998	      0.02249255	     -0.61947887	      0.88709105	      0.03039294	    -48.41521474	      6.38962914	     14.91971661	     -0.28663857	     11.98918461	     -0.46810343	     28.97391511	     -2.46860517	     -1.76869911	     17.71997847	    -11.06406854	     -7.29650226	    -37.10247553	     29.95450346	    -34.66203434	      5.96426540	      7.70581025
      0.96000000	     25.78148371	     -5.63675781	     -0.36365660	     -0.61153831	      0.88736846	      0.03079868	    -48.54530098	      5.96757925	     14.44393101	     -1.02669156	     11.83161954	      0.48644938	     29.63179144	     -2.88278108	     -1.44312090	     17.16595681	    -11.28216028	     -7.49152404	    -36.67400753	     30.05177049	    -34.40338300	      5.44394260	      7.77694110
      0.96500000	     25.78322195	     -5.41790148	     -0.74657139	     -0.60359265	      0.88776633	      0.03123763	    -48.65231010	      5.55848198	     13.95961007	     -1.83326434	     11.57338958	      1.37422709	     30.33207516	     -3.33654853	     -1.13568061	     16.60841238	    -11.46211582	     -7.69817844	    -36.30463534	     30.12787732	    -34.15881929	      4.92794999	      7.86211816
      0.97000000	     25.75138744	     -5.18146805	     -1.10518289	     -0.59561612	      0.88821341	      0.03167564	    -48.71694221	      5.15324942	     13.52385924	     -2.60057826	     11.01317448	      1.86352319	     33.23730755	     -3.77102011	     -0.82397346	     16.08536961	    -11.60148975	     -7.81650275	    -35.73595905	     30.27516233	    -33.87050317	      4.40534695	      7.92143727
      0.97500000	     25.73435975	     -4.95671969	     -1.41906954	     -0.58769742	      0.88875662	      0.03202903	    -48.70708547	      4.79026303	     12.94111742	     -3.54779875	     10.65873357	      2.87132390	     33.65388107	     -4.23300687	     -0.51962219	     15.66186406	    -11.70540877	     -8.08689866	    -35.57248701	     30.25985134	    -33.60212741	      3.91954716	      7.94714111
      0.98000000	     25.70834788	     -4.71920323	     -1.65917768	     -0.57983183	      0.88935376	      0.03228489	    -48.63448003	      4.46951796	     12.26990673	     -4.57003014	     10.21093116	      3.90252562	     34.32429520	     -4.67511432	     -0.21129882	     15.31635477	    -11.81113727	     -8.27199906	    -35.27405726	     30.24420059	    -33.32387731	      3.45848086	      7.91892002
      0.98500000	     25.69683267	     -4.48346751	     -1.83039604	     -0.57205839	      0.89003274	      0.03245739	    -48.51857808	      4.19653310	     11.51385961	     -5.66934744	      9.66616195	      4.93494929	     35.17434845	     -5.13413530	      0.08677943	     15.06727954	    -11.90151626	     -8.40002727	    -34.99154629	     30.19075329	    -33.06832492	      3.02903800	      7.84029759
      0.99000000	     25.67425487	     -4.21359558	     -1.90481233	     -0.56434184	      0.89075458	      0.03247826	    -48.36245665	      3.95559124	     10.65272442	     -6.78295124	      8.95814563	      5.95743578	     36.02327192	     -5.59292834	      0.41233911	     15.02280345	    -11.94708773	     -8.48077352	    -34.72715623	     30.11574269	    -32.80148924	      2.61551188	      7.68719667
      0.99500000	     25.60954399	     -3.99847206	     -1.89063324	     -0.55682835	      0.89149979	      0.03237739	    -48.07959785	      3.82613221	      9.80667541	     -7.98445603	      7.92859479	      6.49538098	     40.76032510	     -5.95017515	      0.66962112	     14.99955132	    -12.08258406	     -8.51345334	    -34.39157305	     29.27986740	    -32.51603760	      2.30229481	      7.45109759
      1.00000000	     25.55290172	     -3.75540497	     -1.75931040	     -0.54945205	      0.89227262	      0.03206087	    -47.70479846	      3.73534849	      8.69295804	     -9.39089013	      7.17973075	      7.72719625	     41.17007633	     -6.30519044	      0.95041562	     15.17605463	    -12.21166292	     -8.52885791	    -34.18496588	     29.18326228	    -32.25318275	      2.02081100	      7.11719570
      1.00500000	     25.47853266	     -3.48965008	     -1.56245469	     -0.54219110	      0.89306437	      0.03162019	    -47.24821353	      3.64747927	      7.46042518	    -10.87897009	      6.31706370	      9.04986398	     41.96619433	     -6.65538543	      1.24348414	     15.47969805	    -12.29089893	     -8.54641899	    -34.00952167	     28.96481849	    -31.98234637	      1.75131895	      6.73958121
      1.01000000	     25.43202315	     -3.23880134	     -1.22238172	     -0.53518946	      0.89390349	      0.03092930	    -46.76616195	      3.64803298	      6.14083066	    -12.39691862	      5.14294568	      9.95122697	     45.45309967	     -7.00012965	      1.51906993	     16.00737243	    -12.42098165	     -8.50020324	    -33.97276592	     27.67020182	    -31.77533178	      1.56701075	      6.23447776
      1.01500000	     25.33841879	     -2.98217454	     -0.82612145	     -0.52831802	      0.89471950	      0.03013311	    -46.13335142	      3.64518983	      4.66906765	    -14.11117327	      4.15403356	     11.30888419	     45.82933575	     -7.27550995	      1.78057006	     16.55484662	    -12.57175479	     -8.34380799	    -33.70371463	     27.56239436	    -31.53329952	      1.40644906	      5.68717067
      1.02000000	     25.24891398	     -2.71306742	     -0.36410028	     -0.52160965	      0.89553964	      0.02918872	    -45.44415290	      3.63035453	      3.09210588	    -15.90389684	      3.06153788	     12.66234257	     46.38091521	     -7.56666915	      2.04973636	     17.23890383	    -12.68518303	     -8.22118433	    -33.62086126	     27.37007128	    -31.31686851	      1.26785492	      5.08016072
      1.02500000	     25.22681212	     -2.42270804	      0.14150566	     -0.51508590	      0.89646980	      0.02813525	    -44.78963654	      3.57639314	      1.44384989	    -17.71361158	      1.79366543	     13.91192815	     47.79983122	     -7.97818653	      2.32893195	     18.05881519	    -12.68001654	     -8.28902855	    -33.71895193	     26.68047559	    -31.19677561	      1.12971970	      4.42676137
      1.03000000	     25.05356700	     -2.18625870	      0.66902490	     -0.50861887	      0.89720211	      0.02699845	    -43.89310591	      3.54037107	     -0.17791314	    -19.67020147	      0.59941599	     14.95538400	     48.30217690	     -8.17164297	      2.55445379	     18.83392461	    -12.81160070	     -7.97490767	    -33.67179852	     26.49682916	    -30.92459293	      1.06527303	      3.77989452
      1.03500000	     24.94583338	     -1.93424355	      1.18363071	     -0.50225195	      0.89804190	      0.02584879	    -43.04252400	      3.42467380	     -1.81858371	    -21.63427512	     -0.68634954	     15.96095185	     48.82344303	     -8.49102772	      2.78257227	     19.62203838	    -12.82457769	     -7.82035038	    -33.68969984	     26.26253158	    -30.73678128	      0.97956581	      3.13512472
      1.04000000	     24.85354931	     -1.67752123	      1.67119391	     -0.49600846	      0.89889216	      0.02468927	    -42.16633810	      3.22983987	     -3.45735635	    -23.65078232	     -1.96388690	     16.84404974	     49.46570051	     -8.83784271	      3.01534564	     20.34454195	    -12.81248518	     -7.77957256	    -33.83812214	     25.89438467	    -30.58265443	      0.88105027	      2.51629282
      1.04500000	     24.73616021	     -1.44498293	      2.18096624	     -0.48984948	      0.89970773	      0.02346992	    -41.24815821	      3.03163132	     -5.02889148	    -25.66130894	     -3.24467967	     17.41858630	     50.01598945	     -9.19308664	      3.20890135	     21.16324320	    -12.72257357	     -7.67008878	    -34.02468422	     25.51025096	    -30.40992348	      0.82064863	      1.88508562
